<svg t="1586786677028" class="icon" viewBox="0 0 1024 1024" version="1.1" xmlns="http://www.w3.org/2000/svg" p-id="2823" width="128" height="128"><path d="M909.12 365.199c-14.254-66.752-31.686-119.324-51.865-156.237-25.61-46.883-56.865-70.658-92.866-70.658-33.767 0-63.542 20.673-88.637 61.471h-385.825l-9.316 12.215c-0.86 1.105-86.125 111.864-182.256 161.334-5.774 2.983-10.132 5.946-13.717 9.338-9.359 8.855-13.246 21.177-10.412 32.952 2.383 9.971 10.069 22.841 33.038 27.542 6.761 1.385 15.392 2.35 27.199 3.037 19.921 1.17 46.627 1.406 77.582 1.685 15.37 0.14 32.051 0.29 49.267 0.579v250.863c-39.843 40.176-61.739 95.216-61.739 155.485 0 17.054 13.932 30.891 31.085 30.891 17.173 0 31.084-13.837 31.084-30.891 0-91.042 65.367-157.117 155.378-157.117 85.63 0 151.148 61.503 156.966 144.956v5.302c0 1.709 0.129 3.361 0.409 4.991 0 0.623 0.020 1.245 0.020 1.868 0 17.054 13.912 30.891 31.085 30.891 17.152 0 31.084-13.837 31.084-30.891 0-4.702-0.151-9.372-0.428-13.998 0.385-180.665 15.305-345.736 42.139-465.478 30.999-138.344 68.63-175.245 85.998-175.245 17.066 0 53.947 37.471 83.915 177.929 25.932 121.567 40.208 290.587 40.208 475.912 0 17.067 13.91 30.891 31.083 30.891s31.084-13.824 31.084-30.891c0-189.499-14.768-363.069-41.559-488.726zM617.727 361.903c-20.715 92.382-34.562 210.193-40.445 340.789-2.081-2.17-4.207-4.306-6.397-6.397-40.745-38.931-95.356-60.378-153.768-60.378-33.124 0-64.938 6.935-93.639 20.074v-267.812l-30.225-0.837c-28.272-0.773-56.114-1.020-80.651-1.245-6.353-0.053-12.966-0.107-19.621-0.182 59.827-45.456 107.614-100.272 127.385-124.358h326.212c-10.626 28.561-20.287 62.093-28.852 100.347zM512.561 387.052h-128.093v124.627h128.093v-124.627z" p-id="2824" fill="#707070"></path></svg>